<svg width="122" height="116" viewBox="0 0 122 116" fill="none" xmlns="http://www.w3.org/2000/svg">
<path d="M12.7083 20.5416C12.7083 19.5802 13.1099 18.6582 13.8249 17.9784C14.5399 17.2985 15.5096 16.9166 16.5208 16.9166H19.3573C24.1864 16.9166 27.0839 20.0051 28.736 22.8761C29.8391 24.7901 30.6372 27.0086 31.2624 29.0193L31.7708 29H95.3023C99.5214 29 102.571 32.8376 101.412 36.6995L92.1201 67.6763C91.2869 70.4548 89.5244 72.8994 87.0992 74.6402C84.674 76.381 81.7184 77.323 78.6798 77.3236H48.4441C45.3813 77.3237 42.4033 76.3675 39.9678 74.6018C37.5322 72.8362 35.7739 70.3588 34.9631 67.5506L31.0998 54.1526L24.6948 33.6206L24.6897 33.582C23.8967 30.8415 23.1545 28.275 22.0463 26.361C20.9839 24.5001 20.1299 24.1666 19.3623 24.1666H16.5208C15.5096 24.1666 14.5399 23.7847 13.8249 23.1049C13.1099 22.4251 12.7083 21.503 12.7083 20.5416ZM45.7499 101.5C48.4463 101.5 51.0322 100.482 52.9388 98.6687C54.8455 96.8558 55.9166 94.3971 55.9166 91.8333C55.9166 89.2695 54.8455 86.8108 52.9388 84.9979C51.0322 83.1851 48.4463 82.1666 45.7499 82.1666C43.0536 82.1666 40.4676 83.1851 38.561 84.9979C36.6544 86.8108 35.5833 89.2695 35.5833 91.8333C35.5833 94.3971 36.6544 96.8558 38.561 98.6687C40.4676 100.482 43.0536 101.5 45.7499 101.5ZM81.3333 101.5C84.0296 101.5 86.6156 100.482 88.5222 98.6687C90.4288 96.8558 91.4999 94.3971 91.4999 91.8333C91.4999 89.2695 90.4288 86.8108 88.5222 84.9979C86.6156 83.1851 84.0296 82.1666 81.3333 82.1666C78.6369 82.1666 76.051 83.1851 74.1443 84.9979C72.2377 86.8108 71.1666 89.2695 71.1666 91.8333C71.1666 94.3971 72.2377 96.8558 74.1443 98.6687C76.051 100.482 78.6369 101.5 81.3333 101.5Z" fill="#9747FF"/>
</svg>
